<?xml version="1.0" encoding="UTF-8" standalone="no"?><svg xmlns="http://www.w3.org/2000/svg" xmlns:xlink="http://www.w3.org/1999/xlink" fill="#000000" height="100.4" preserveAspectRatio="xMidYMid meet" version="1" viewBox="33.8 191.1 432.2 100.4" width="432.2" zoomAndPan="magnify"><g fill="#5bc0de" id="change1_1"><path d="M60.1,290.7c3.3-0.3,6.5-0.6,9.7-1c3.8-0.5,7.7-0.8,11.4-1.8c3.7-1.1,7.6,0.1,11.3-1.3 c7.1,0.4,14.1-1.3,21.3-1.5c10.2-0.2,20.2-2.2,30.1-4.7c3.5-0.9,7.1-2.2,10.7-2.3c7.1-0.2,14-2.3,21.1-2.4c0.4,0,0.8,0,1.1-0.1 c5.2-2.3,10.9-1.4,16.4-2.6c4.2-0.9,8.6-2,13.1-1.6c0.9,0.1,1.9-0.5,2.8-0.6c4.2-0.3,8.2-1.7,12.5-1.7c6.7,0.1,13.5-0.4,20.1-1.1 c6.5-0.7,12.8-2.3,19.3-3c4.8-0.5,9.6-0.4,14.3-1.7c1.1-0.3,2.3,0.1,3.4,0.1c3.8-0.1,7.7,0.3,11.4-0.5c2.5-0.5,4.9-0.7,7.4-0.4 c0.9,0.1,1.9,0,2.9-0.1c7.6-0.5,15.3-1,22.9-1.5c2.5-0.2,5-0.1,7.4-0.3c1.1-0.1,2.2-0.6,3.3-0.9c-0.5-3.1,2.1-1.5,3.2-2.2 c1-0.6-0.7-1-0.2-2.1c3.7,0,7.7-0.4,11.7-1c5.7-0.9,11.5-0.1,17.3-0.8c2.4-0.3,5,0.8,7.4,0.7c2.3-0.1,4.6-1.6,7.1-0.3 c0.4,0.2,1.5-0.3,2-0.8c4-3.5,8.7-3.5,13.5-2.9c0.9,0.1,2,0.5,2.8,0.3c3.8-1.1,7.6-0.1,11.5-0.6c1.9-0.2,3.9-0.1,5.7,0.3 c4.1,0.8,8-0.4,12-0.6c1.5,0,1.8-1,1.4-2.9c-0.1-0.6-0.4-1.1-0.3-1.7c0.1-0.5,0.5-1.3,0.8-1.3c3.2-0.2,5.9-2.8,9.4-2 c1.9,0.4,3.4-0.4,4.3-2.2c0.5-1.2,2-2,1.5-3.6c-1.4-0.8-3.3-0.9-4.5-2.3c-0.4-0.4-1-0.9-1.4-0.9c-2.9,0.6-5.7-1-8.5-0.7 c-2.4,0.2-4.6-0.1-6.8-0.5c-1.9-0.4-3.7-0.4-5.6-0.1c-5.6,0.8-6.2,0.6-11.8-1.5c2-1.1,4.2-1.1,6.2-1.3c3.4-0.3,6.9,0.5,10.3-0.4 c3.3-0.9,6.9,1,10.2-0.6c0.3-0.1,0.8,0,1.1,0.2c3.2,2.2,6.5,1.4,9.9,0.4c2.4-0.7,4.7-1.5,7.3-1.1c2.1,0.3,4-0.9,4.9-2.4 c1-1.6,1.9-2.8,3.7-3.3c0.5-0.1,1.2-0.5,1.3-1c0.6-2.2,2.5-3.4,3.6-5.1c1-1.4,0.6-2.7-1.1-3.1c-2.9-0.7-4.8-2.2-5.7-5.1 c-0.3-1.1-1.1-2.1-2.3-2.4c-3.7-0.9-6.9-3-10.9-3.3c-3-0.2-6.2-0.5-8.3-3.2c-0.4-0.5-1.4-0.5-2.1-0.9c-4.4-2.2-9.1-2.7-14-2.7 c-3.1,0-6.1-0.2-9.2-0.8c-2.8-0.5-5.7-0.5-8.6-0.7c-1.5-0.1-3.2,0.2-4.6-0.2c-7-1.9-14.3,0.2-21.3-1.5c-0.5-0.1-1.1,0.2-1.7,0.3 c-6.7,0.8-13.4,1.6-20,2.3c-1.9,0.2-3.8,0.1-5.6-0.9c-1-0.6-2.2-0.9-3.3-1c-4.6-0.1-9.3-0.3-13.9,0c-6.1,0.4-12.3,1.1-18.3,2.1 c-4.4,0.7-8.8,0.8-13.2,0.9c-4.4,0.1-8.8,0.2-13.2,1c-2.6,0.5-5.2,1.6-7.9,1.1c-0.1-0.1-0.2-0.3-0.3-0.4c-2-0.7-4.1,0.8-6.1-0.2 c-0.1-0.1-0.7,0.4-0.7,0.6c-0.1,1.3-0.7,1.5-1.8,1.6c-4.8,0.4-9.5,0.9-14.3,1.4c-3,0.3-6,1.4-9.1,0.3c-0.7-0.2-1.5,0.1-2.3,0.2 c-2.3,0.5-4.3,1.4-7,0.9c-2.3-0.5-5,0.4-7.3,1.2c-1.9,0.6-3.8,0.1-5.6,0.7c-1.8,0.6-3.7,1-5.6,1.2c-4,0.4-8,0.3-11.8,1.9 c-0.8,0.3-2.1,0.6-2.8,0.2c-2.2-1-4.1-0.6-6.1,0.4c-1.1,0.5-2.2,0.5-3.4,0.2c-3.3-0.9-6.5-0.1-9.8,0.2c-0.9,0.1-1.8,0.7-2.8,0.3 c-2.3-0.9-4.5-0.3-6.8,0.2c-2.2,0.5-4.5,0.8-6.5-1c-0.9-0.8-2.2-0.6-3.3-0.3c-4.7,1.1-9.4,1.8-14.2,2.7c-8.7,1.7-17.4,2.9-26.1,4.3 c-3.6,0.6-7.2,0.7-10.6,2.6c-1.8,1-4,1.4-6.1,1.5c-1.5,0-3.1,0.3-4.6,0.6c-6.4,1.4-12.7,2.6-19.3,2.8c-2.5,0.1-5-0.3-7.2,1.5 c-0.8,0.7-1.8,0.2-2.8,0.2c-1.9-0.1-3.9-0.4-5.7,0.5c-0.7,0.4-1.5,1-1,1.7c0.7,1.3,0.9,2.4-0.2,3.6c-0.9,1.1-0.5,2.2,0.8,2.8 c0.7,0.4,1.7,0.7,1.3,1.6c-0.6,1.6-1.4,3.2-2.4,4.5c-0.7,1-2.1,0.7-3.3,0.8c-2.3,0.2-4.9-0.2-6.8,0.7c-2.6,1.2-5.3,2.1-8,3.3 c1.2,2.1,3.5,1.5,5,2.3c-4.1,3.8-9.3,5.2-14.1,8.3c3.4,1,6.1,2.6,8.8,4.3c-1,2.1-2.5,3.2-4.5,3.6c-1.7,0.4-3.3,1.3-4.9,1.6 c-2.6,0.3-3.9,2-5.5,3.8c-1.2,1.4-1.1,2.2,0.3,3.2c0.8,0.5,0.5,1.3,0.4,2.1c-0.7,3.4-0.7,3.4,3,4.1c0.5,0.1,1.1,0.1,1.4,0.7 c0.2,0.9-0.7,1.2-1.2,1.8c-2.3,3-1.8,5,1.6,6c1.3,0.4,2.6,0.6,3.9,0.8c0.7-0.5,1.4-0.6,1.8,0.2c0.1,0.3-0.4,0.9-0.5,1.4 c-0.3,0.4-0.6,0.9-1.1,1.3c-0.5,0.4-1,0.8-0.7,1.4c0.2,0.4,0.8,0.8,1.2,1c0.5,0.2,1.1,0.2,1.7,0.2C51.4,291.5,55.7,291,60.1,290.7z"/><path d="M433.4,228c-0.4,0.2-0.5,0.4-0.2,0.7c0.1,0.1,0.2,0,0.3,0c0.1-0.1,0.2-0.2,0.2-0.3 C433.6,228.2,433.4,228,433.4,228z"/></g></svg>